<?xml version="1.0" encoding="UTF-8"?>
<svg xmlns="http://www.w3.org/2000/svg" width="1024" height="1024" viewBox="0 0 1024 1024">
<circle cx="512" cy="512" r="400" stroke="#7b5e2a" stroke-width="26" fill="none" stroke-linecap="round" stroke-linejoin="round"/>
<line x1="592.00" y1="512.00" x2="876.00" y2="512.00" stroke="#1b5e20" stroke-width="26" stroke-linecap="round" stroke-linejoin="round"/>
<line x1="876.00" y1="512.00" x2="915.20" y2="492.02" stroke="#7b5e2a" stroke-width="12" stroke-linecap="round" stroke-linejoin="round"/>
<line x1="876.00" y1="512.00" x2="903.15" y2="532.46" stroke="#66bb6a" stroke-width="12" stroke-linecap="round" stroke-linejoin="round"/>
<line x1="769.52" y1="488.60" x2="769.52" y2="535.40" stroke="#7b5e2a" stroke-width="12" stroke-linecap="round" stroke-linejoin="round"/>
<line x1="582.64" y1="549.56" x2="807.68" y2="669.22" stroke="#1b5e20" stroke-width="26" stroke-linecap="round" stroke-linejoin="round"/>
<line x1="807.68" y1="669.22" x2="851.67" y2="669.98" stroke="#7b5e2a" stroke-width="12" stroke-linecap="round" stroke-linejoin="round"/>
<line x1="807.68" y1="669.22" x2="822.05" y2="700.03" stroke="#66bb6a" stroke-width="12" stroke-linecap="round" stroke-linejoin="round"/>
<line x1="735.99" y1="603.30" x2="712.94" y2="646.64" stroke="#7b5e2a" stroke-width="12" stroke-linecap="round" stroke-linejoin="round"/>
<line x1="550.78" y1="581.97" x2="663.76" y2="785.79" stroke="#1b5e20" stroke-width="26" stroke-linecap="round" stroke-linejoin="round"/>
<line x1="663.76" y1="785.79" x2="700.24" y2="810.40" stroke="#7b5e2a" stroke-width="12" stroke-linecap="round" stroke-linejoin="round"/>
<line x1="663.76" y1="785.79" x2="659.03" y2="819.46" stroke="#66bb6a" stroke-width="12" stroke-linecap="round" stroke-linejoin="round"/>
<line x1="646.46" y1="698.11" x2="598.57" y2="724.65" stroke="#7b5e2a" stroke-width="12" stroke-linecap="round" stroke-linejoin="round"/>
<line x1="494.00" y1="589.95" x2="434.21" y2="848.94" stroke="#1b5e20" stroke-width="26" stroke-linecap="round" stroke-linejoin="round"/>
<line x1="434.21" y1="848.94" x2="444.86" y2="891.63" stroke="#7b5e2a" stroke-width="12" stroke-linecap="round" stroke-linejoin="round"/>
<line x1="434.21" y1="848.94" x2="408.17" y2="870.79" stroke="#66bb6a" stroke-width="12" stroke-linecap="round" stroke-linejoin="round"/>
<line x1="484.06" y1="759.01" x2="428.83" y2="746.26" stroke="#7b5e2a" stroke-width="12" stroke-linecap="round" stroke-linejoin="round"/>
<line x1="443.43" y1="553.20" x2="231.19" y2="680.73" stroke="#1b5e20" stroke-width="26" stroke-linecap="round" stroke-linejoin="round"/>
<line x1="231.19" y1="680.73" x2="207.88" y2="718.04" stroke="#7b5e2a" stroke-width="12" stroke-linecap="round" stroke-linejoin="round"/>
<line x1="231.19" y1="680.73" x2="197.38" y2="677.17" stroke="#66bb6a" stroke-width="12" stroke-linecap="round" stroke-linejoin="round"/>
<line x1="322.12" y1="655.00" x2="296.60" y2="612.52" stroke="#7b5e2a" stroke-width="12" stroke-linecap="round" stroke-linejoin="round"/>
<line x1="435.50" y1="488.61" x2="170.87" y2="407.71" stroke="#1b5e20" stroke-width="26" stroke-linecap="round" stroke-linejoin="round"/>
<line x1="170.87" y1="407.71" x2="127.54" y2="415.35" stroke="#7b5e2a" stroke-width="12" stroke-linecap="round" stroke-linejoin="round"/>
<line x1="170.87" y1="407.71" x2="150.88" y2="380.20" stroke="#66bb6a" stroke-width="12" stroke-linecap="round" stroke-linejoin="round"/>
<line x1="262.80" y1="460.75" x2="276.74" y2="415.14" stroke="#7b5e2a" stroke-width="12" stroke-linecap="round" stroke-linejoin="round"/>
<line x1="474.44" y1="441.36" x2="361.62" y2="229.17" stroke="#1b5e20" stroke-width="26" stroke-linecap="round" stroke-linejoin="round"/>
<line x1="361.62" y1="229.17" x2="325.58" y2="203.94" stroke="#7b5e2a" stroke-width="12" stroke-linecap="round" stroke-linejoin="round"/>
<line x1="361.62" y1="229.17" x2="366.94" y2="195.59" stroke="#66bb6a" stroke-width="12" stroke-linecap="round" stroke-linejoin="round"/>
<line x1="378.76" y1="319.88" x2="427.24" y2="294.10" stroke="#7b5e2a" stroke-width="12" stroke-linecap="round" stroke-linejoin="round"/>
<line x1="536.72" y1="435.92" x2="616.61" y2="190.05" stroke="#1b5e20" stroke-width="26" stroke-linecap="round" stroke-linejoin="round"/>
<line x1="616.61" y1="190.05" x2="609.73" y2="146.59" stroke="#7b5e2a" stroke-width="12" stroke-linecap="round" stroke-linejoin="round"/>
<line x1="616.61" y1="190.05" x2="644.46" y2="170.55" stroke="#66bb6a" stroke-width="12" stroke-linecap="round" stroke-linejoin="round"/>
<line x1="560.28" y1="272.45" x2="613.74" y2="289.82" stroke="#7b5e2a" stroke-width="12" stroke-linecap="round" stroke-linejoin="round"/>
<line x1="583.28" y1="475.68" x2="787.68" y2="371.54" stroke="#1b5e20" stroke-width="26" stroke-linecap="round" stroke-linejoin="round"/>
<line x1="787.68" y1="371.54" x2="813.54" y2="335.94" stroke="#7b5e2a" stroke-width="12" stroke-linecap="round" stroke-linejoin="round"/>
<line x1="787.68" y1="371.54" x2="821.16" y2="377.44" stroke="#66bb6a" stroke-width="12" stroke-linecap="round" stroke-linejoin="round"/>
<line x1="702.13" y1="387.66" x2="724.35" y2="431.27" stroke="#7b5e2a" stroke-width="12" stroke-linecap="round" stroke-linejoin="round"/>
<circle cx="512" cy="512" r="64" stroke="#66bb6a" stroke-width="12" fill="none" stroke-linecap="round" stroke-linejoin="round"/>
<circle cx="512" cy="512" r="10" fill="#1b5e20"/>
</svg>